<svg xmlns="http://www.w3.org/2000/svg" width="434" height="150" viewBox="0 0 434 150" version="1.1"><path d="M 17.388 8.980 C 16.227 9.449, 14.314 11.057, 13.138 12.552 L 11 15.270 11 72.230 L 11 129.191 13.149 132.209 C 14.330 133.868, 16.791 135.850, 18.617 136.613 C 21.264 137.719, 30.092 137.995, 62.218 137.976 C 84.373 137.963, 104.242 137.548, 106.372 137.054 C 108.502 136.560, 111.773 134.674, 113.641 132.863 C 115.510 131.052, 117.500 127.855, 118.065 125.759 C 118.883 122.721, 118.792 121.649, 117.617 120.474 C 116.363 119.220, 109.628 119, 72.571 119 L 29 119 29 72.500 L 29 26 64.240 26 L 99.480 26 80.990 44.516 L 62.500 63.032 62 52.766 L 61.500 42.500 52.750 42.211 L 44 41.922 44 73.402 C 44 95.312, 44.336 105.090, 45.105 105.565 C 45.735 105.954, 49.942 102.535, 54.872 97.627 L 63.533 89.006 77.503 103.003 L 91.473 117 102.737 117 C 108.931 117, 114 116.601, 114 116.112 C 114 115.624, 105.273 106.737, 94.607 96.362 L 75.214 77.500 97.107 55.449 L 119 33.398 119 26.167 C 119 22.136, 118.363 17.411, 117.560 15.490 C 116.768 13.594, 114.631 11.136, 112.810 10.026 L 109.500 8.007 64.500 8.067 C 39.750 8.100, 18.550 8.511, 17.388 8.980 M 293.250 18.662 C 292.563 18.940, 292 19.744, 292 20.451 C 292 21.157, 296.268 32.257, 301.483 45.117 C 307.988 61.156, 311.775 69.207, 313.539 70.750 C 314.954 71.988, 317.031 73, 318.155 73 C 319.278 73, 321.391 71.695, 322.849 70.099 C 324.460 68.337, 329.194 57.901, 334.912 43.508 C 342.576 24.217, 344.061 19.652, 342.912 18.924 C 342.135 18.433, 340.150 18.031, 338.500 18.031 C 336.850 18.031, 334.980 18.361, 334.345 18.766 C 333.710 19.170, 329.962 27.601, 326.016 37.500 C 322.071 47.400, 318.510 55.846, 318.102 56.269 C 317.695 56.693, 314.039 48.672, 309.979 38.447 C 305.691 27.649, 301.870 19.466, 300.864 18.927 C 299.911 18.417, 298.089 18.036, 296.816 18.079 C 295.542 18.122, 293.938 18.385, 293.250 18.662 M 138.627 20.530 C 138.282 21.429, 138 32.901, 138 46.025 L 138 69.887 140.223 71.443 C 141.445 72.299, 142.934 73, 143.531 73 C 144.129 73, 145.491 72.363, 146.559 71.584 C 148.148 70.424, 148.591 68.565, 149 61.334 L 149.500 52.500 152.553 52.201 C 154.455 52.015, 156.559 52.652, 158.132 53.889 C 159.522 54.982, 162.746 59.469, 165.297 63.861 C 168.010 68.529, 170.811 72.123, 172.042 72.513 C 173.200 72.881, 175.464 72.636, 177.074 71.969 C 178.683 71.303, 180 70.293, 180 69.725 C 180 69.157, 178.353 65.724, 176.340 62.096 C 174.327 58.468, 171.174 53.125, 169.334 50.222 L 165.989 44.944 172.499 33.237 C 176.080 26.798, 178.860 21.073, 178.677 20.515 C 178.494 19.957, 176.290 19.365, 173.779 19.200 L 169.214 18.899 163.321 29.200 L 157.428 39.500 153.214 39.807 L 149 40.115 148.882 32.807 C 148.817 28.788, 148.477 24.150, 148.127 22.500 C 147.559 19.825, 147.045 19.467, 143.372 19.199 C 140.294 18.973, 139.095 19.310, 138.627 20.530 M 191.688 19.646 C 191.309 20.024, 191 22.033, 191 24.110 C 191 26.879, 191.593 28.302, 193.223 29.443 C 194.998 30.687, 198.509 31, 210.675 31 C 220.263 31, 226.867 30.562, 228.500 29.818 C 230.819 28.761, 231.063 28.150, 230.797 24.068 L 230.500 19.500 211.438 19.229 C 200.953 19.080, 192.066 19.268, 191.688 19.646 M 242.424 21.449 C 242.070 22.857, 241.960 32.220, 242.179 42.255 C 242.503 57.089, 242.908 61.178, 244.345 64.129 C 245.317 66.124, 247.247 68.824, 248.634 70.129 C 250.963 72.319, 252.114 72.526, 263.735 72.835 C 272.484 73.068, 277.028 72.788, 278.657 71.916 C 280.547 70.905, 281 69.845, 281 66.438 C 281 63.509, 280.515 62.028, 279.418 61.607 C 278.548 61.273, 272.788 61, 266.618 61 C 259.226 61, 254.991 60.591, 254.200 59.800 C 253.374 58.974, 252.963 53.447, 252.882 42.050 C 252.817 32.948, 252.477 24.150, 252.127 22.500 C 251.556 19.811, 251.054 19.468, 247.278 19.194 C 243.480 18.918, 243.003 19.140, 242.424 21.449 M 355.714 19.620 C 355.321 20.012, 355 31.743, 355 45.688 L 355 71.043 357.509 72.186 C 359.454 73.072, 360.580 73.028, 362.525 71.987 L 365.033 70.644 364.767 45.072 L 364.500 19.500 360.464 19.203 C 358.244 19.040, 356.106 19.227, 355.714 19.620 M 378 21 L 376 23 376 46.831 L 376 70.662 378.500 72 C 380.588 73.117, 381.412 73.117, 383.500 72 L 386 70.662 386 54.890 C 386 46.215, 386.390 38.877, 386.866 38.583 C 387.343 38.288, 388.443 38.832, 389.311 39.791 C 390.179 40.751, 394.328 47.603, 398.530 55.018 C 402.732 62.433, 407.111 69.513, 408.260 70.750 C 409.703 72.305, 411.497 73, 414.064 73 C 416.230 73, 418.762 72.204, 420.139 71.089 L 422.500 69.179 422.500 44.339 L 422.500 19.500 418 19.500 L 413.500 19.500 413 38.500 L 412.500 57.500 402.177 39.246 C 396.499 29.206, 391.016 20.544, 389.993 19.996 C 388.969 19.448, 386.302 19, 384.066 19 C 381.333 19, 379.344 19.656, 378 21 M 192.892 42.108 C 190.928 44.072, 190.781 45.029, 191.231 52.914 C 191.511 57.823, 192.392 62.849, 193.267 64.533 C 194.116 66.165, 196.013 68.625, 197.482 70 L 200.155 72.500 213.239 72.833 C 222.495 73.068, 227.020 72.792, 228.705 71.890 C 230.842 70.747, 231.058 70.040, 230.794 65.057 L 230.500 59.500 216.770 59.222 C 204.136 58.966, 202.953 58.781, 201.951 56.908 C 201.149 55.409, 201.176 54.493, 202.053 53.436 C 202.962 52.341, 206.008 51.995, 214.872 51.978 C 224.480 51.959, 226.903 51.645, 228.822 50.169 C 230.688 48.734, 231.080 47.609, 230.822 44.442 L 230.500 40.500 212.773 40.227 L 195.046 39.954 192.892 42.108 M 158.308 75.997 C 157.103 76.489, 155.438 77.929, 154.609 79.196 C 153.780 80.463, 152.799 83.393, 152.430 85.706 C 152.061 88.019, 152.074 92.440, 152.461 95.531 C 152.976 99.653, 153.919 101.997, 155.998 104.325 L 158.833 107.500 168.667 107.782 C 174.075 107.937, 179.512 108.283, 180.750 108.551 C 182.625 108.957, 183 109.702, 183 113.019 L 183 117 168.700 117 C 158.911 117, 154.021 117.379, 153.200 118.200 C 152.540 118.860, 152 120.833, 152 122.585 C 152 124.867, 152.699 126.228, 154.465 127.385 C 156.444 128.682, 159.751 129, 171.242 129 C 182.196 129, 186.046 128.656, 187.647 127.535 C 188.798 126.729, 190.473 124.523, 191.370 122.633 C 192.435 120.388, 193 116.548, 193 111.549 C 193 106.885, 192.444 102.825, 191.575 101.145 C 190.791 99.629, 188.970 97.852, 187.528 97.195 C 186.005 96.501, 180.315 96, 173.953 96 L 163 96 163 92.107 C 163 89.480, 163.514 88.017, 164.582 87.607 C 165.452 87.273, 170.964 86.990, 176.832 86.978 C 185.518 86.960, 187.931 86.624, 189.822 85.169 C 191.688 83.734, 192.080 82.609, 191.822 79.442 L 191.500 75.500 176 75.301 C 167.475 75.191, 159.514 75.504, 158.308 75.997 M 213.035 76.293 C 211.102 76.966, 208.588 78.960, 207.350 80.800 C 206.130 82.616, 204.821 86.582, 204.442 89.615 C 204.063 92.648, 203.946 100.171, 204.182 106.333 C 204.543 115.753, 204.986 118.203, 206.969 121.731 C 208.326 124.145, 210.703 126.580, 212.565 127.464 C 214.958 128.600, 219.176 129, 228.746 129 C 240.016 129, 241.904 128.763, 243.345 127.171 C 244.255 126.165, 245 124.005, 245 122.371 C 245 120.737, 244.460 118.860, 243.800 118.200 C 242.987 117.387, 238.306 117, 229.275 117 L 215.950 117 214.975 114.435 C 214.439 113.024, 214 107.004, 214 101.057 C 214 92.230, 214.303 89.993, 215.650 88.872 C 216.777 87.935, 220.957 87.392, 228.823 87.160 C 237.106 86.915, 241.014 86.381, 242.723 85.262 C 244.693 83.971, 245.049 83.001, 244.800 79.602 L 244.500 75.500 230.500 75.293 C 221.615 75.161, 215.234 75.527, 213.035 76.293 M 276.719 76.250 C 275.805 76.938, 270.769 88.046, 265.528 100.936 C 260.288 113.826, 256 124.909, 256 125.565 C 256 126.221, 257.373 127.326, 259.050 128.021 C 261.527 129.047, 262.561 129.038, 264.550 127.973 C 265.898 127.252, 267 126.043, 267 125.286 C 267 124.529, 268.105 122.805, 269.455 121.455 C 271.369 119.540, 272.965 118.995, 276.705 118.978 C 279.810 118.963, 282.349 118.303, 283.908 117.105 L 286.315 115.254 284.775 111.377 C 283.374 107.850, 282.863 107.472, 279.117 107.193 C 276.853 107.023, 275 106.537, 275 106.112 C 275 105.687, 276.082 102.676, 277.405 99.420 C 278.728 96.164, 280.499 93.360, 281.342 93.189 C 282.184 93.018, 283.519 93.918, 284.308 95.189 C 285.097 96.460, 288.339 104.096, 291.514 112.157 C 295.754 122.925, 297.897 127.142, 299.592 128.049 C 301.429 129.032, 302.522 129.026, 304.950 128.021 C 306.627 127.326, 308 126.422, 308 126.011 C 308 125.601, 303.747 114.803, 298.549 102.016 C 293.351 89.228, 288.331 77.918, 287.394 76.883 C 286.318 75.693, 284.344 75, 282.036 75 C 280.027 75, 277.634 75.563, 276.719 76.250 M 319.400 76.400 C 319.080 77.235, 318.978 86.823, 319.173 97.708 C 319.460 113.685, 319.844 118.078, 321.169 120.500 C 322.072 122.150, 324.013 124.625, 325.482 126 L 328.155 128.500 340.627 128.833 C 350.795 129.104, 353.552 128.869, 355.549 127.560 C 357.325 126.396, 358 125.051, 358 122.677 C 358 120.875, 357.460 118.860, 356.800 118.200 C 355.997 117.397, 351.546 117, 343.359 117 C 334.664 117, 330.884 116.638, 330.309 115.750 C 329.864 115.063, 329.275 105.725, 329 95 L 328.500 75.500 324.241 75.192 C 321.150 74.969, 319.822 75.300, 319.400 76.400 M 369 79.818 C 369 84.057, 369.326 84.828, 371.547 85.839 C 373.131 86.561, 379.842 86.992, 389.297 86.978 C 402.338 86.959, 404.830 86.702, 406.822 85.169 C 408.688 83.734, 409.080 82.609, 408.822 79.442 L 408.500 75.500 388.750 75.229 L 369 74.958 369 79.818 M 370.655 97.829 C 369.390 99.227, 369 101.649, 369 108.117 C 369 114.901, 369.446 117.460, 371.250 121.038 C 372.714 123.942, 374.722 126.111, 377 127.248 C 379.749 128.622, 383.080 128.997, 392.527 128.998 C 401.797 129, 405.065 128.643, 406.777 127.443 C 408.480 126.251, 409 124.895, 409 121.643 C 409 119.309, 408.460 116.860, 407.800 116.200 C 406.994 115.394, 402.467 115, 394 115 C 385.533 115, 381.006 114.606, 380.200 113.800 C 379.540 113.140, 379 111.838, 379 110.907 C 379 109.976, 379.712 108.941, 380.582 108.607 C 381.452 108.273, 386.831 108, 392.535 108 C 398.275 108, 404.043 107.482, 405.453 106.839 C 407.672 105.829, 408 105.055, 408 100.839 L 408 96 390.155 96 C 374.137 96, 372.141 96.187, 370.655 97.829" stroke="none" fill="#f34c14" fill-rule="evenodd"/></svg>